<mxfile host="app.diagrams.net" agent="Mozilla/5.0 (Windows NT 10.0; Win64; x64) AppleWebKit/537.36 (KHTML, like Gecko) Chrome/136.0.0.0 Safari/537.36 Edg/136.0.0.0" version="26.2.14">
  <diagram name="第 1 页" id="TK6MnntXinhpijAJY-6T">
    <mxGraphModel dx="1500" dy="826" grid="1" gridSize="10" guides="1" tooltips="1" connect="1" arrows="1" fold="1" page="1" pageScale="1" pageWidth="827" pageHeight="1169" math="0" shadow="0">
      <root>
        <mxCell id="0" />
        <mxCell id="1" parent="0" />
        <mxCell id="tLk9SmoAxB1TY1PYqv6q-3" value="" style="edgeStyle=orthogonalEdgeStyle;rounded=0;orthogonalLoop=1;jettySize=auto;html=1;" edge="1" parent="1" source="tLk9SmoAxB1TY1PYqv6q-1" target="tLk9SmoAxB1TY1PYqv6q-2">
          <mxGeometry relative="1" as="geometry" />
        </mxCell>
        <mxCell id="tLk9SmoAxB1TY1PYqv6q-1" value="开始" style="strokeWidth=2;html=1;shape=mxgraph.flowchart.terminator;whiteSpace=wrap;" vertex="1" parent="1">
          <mxGeometry x="150" y="210" width="100" height="50" as="geometry" />
        </mxCell>
        <mxCell id="tLk9SmoAxB1TY1PYqv6q-5" value="" style="edgeStyle=orthogonalEdgeStyle;rounded=0;orthogonalLoop=1;jettySize=auto;html=1;" edge="1" parent="1" source="tLk9SmoAxB1TY1PYqv6q-2" target="tLk9SmoAxB1TY1PYqv6q-4">
          <mxGeometry relative="1" as="geometry" />
        </mxCell>
        <mxCell id="tLk9SmoAxB1TY1PYqv6q-2" value="&lt;div style=&quot;line-height: 40%;&quot;&gt;&lt;p class=&quot;MsoNormal&quot;&gt;&lt;font face=&quot;Helvetica&quot; style=&quot;&quot;&gt;ESP32&lt;font style=&quot;&quot;&gt;硬件&lt;/font&gt;&lt;font style=&quot;&quot;&gt;串&lt;/font&gt;&lt;/font&gt;&lt;/p&gt;&lt;p class=&quot;MsoNormal&quot;&gt;&lt;font style=&quot;&quot;&gt;&lt;font face=&quot;Helvetica&quot; style=&quot;&quot;&gt;口初始化&lt;/font&gt;&lt;/font&gt;&lt;/p&gt;&lt;/div&gt;" style="whiteSpace=wrap;html=1;strokeWidth=2;" vertex="1" parent="1">
          <mxGeometry x="140" y="290" width="120" height="50" as="geometry" />
        </mxCell>
        <mxCell id="tLk9SmoAxB1TY1PYqv6q-7" value="" style="edgeStyle=orthogonalEdgeStyle;rounded=0;orthogonalLoop=1;jettySize=auto;html=1;" edge="1" parent="1" source="tLk9SmoAxB1TY1PYqv6q-4" target="tLk9SmoAxB1TY1PYqv6q-6">
          <mxGeometry relative="1" as="geometry" />
        </mxCell>
        <mxCell id="tLk9SmoAxB1TY1PYqv6q-4" value="&lt;p class=&quot;MsoNormal&quot;&gt;&lt;font face=&quot;Helvetica&quot;&gt;&lt;font style=&quot;&quot;&gt;RGB&lt;/font&gt;&lt;font style=&quot;&quot;&gt;灯D17引脚设置为输出模式&lt;/font&gt;&lt;/font&gt;&lt;span style=&quot;mso-spacerun:&#39;yes&#39;;font-family:宋体;mso-ascii-font-family:Calibri;&lt;br/&gt;mso-hansi-font-family:Calibri;mso-bidi-font-family:&#39;Times New Roman&#39;;font-size:10.5000pt;&lt;br/&gt;mso-font-kerning:1.0000pt;&quot;&gt;&lt;/span&gt;&lt;/p&gt;" style="whiteSpace=wrap;html=1;strokeWidth=2;" vertex="1" parent="1">
          <mxGeometry x="140" y="380" width="120" height="60" as="geometry" />
        </mxCell>
        <mxCell id="tLk9SmoAxB1TY1PYqv6q-9" value="" style="edgeStyle=orthogonalEdgeStyle;rounded=0;orthogonalLoop=1;jettySize=auto;html=1;" edge="1" parent="1" source="tLk9SmoAxB1TY1PYqv6q-6" target="tLk9SmoAxB1TY1PYqv6q-8">
          <mxGeometry relative="1" as="geometry" />
        </mxCell>
        <mxCell id="tLk9SmoAxB1TY1PYqv6q-6" value="&lt;div style=&quot;line-height: 40%;&quot;&gt;&lt;p class=&quot;MsoNormal&quot;&gt;&lt;font face=&quot;Helvetica&quot;&gt;光敏电阻D34引脚&lt;/font&gt;&lt;/p&gt;&lt;p class=&quot;MsoNormal&quot;&gt;&lt;font face=&quot;Helvetica&quot;&gt;输入模式&lt;/font&gt;&lt;/p&gt;&lt;/div&gt;" style="whiteSpace=wrap;html=1;strokeWidth=2;" vertex="1" parent="1">
          <mxGeometry x="140" y="480" width="120" height="60" as="geometry" />
        </mxCell>
        <mxCell id="tLk9SmoAxB1TY1PYqv6q-11" value="" style="edgeStyle=orthogonalEdgeStyle;rounded=0;orthogonalLoop=1;jettySize=auto;html=1;" edge="1" parent="1" source="tLk9SmoAxB1TY1PYqv6q-8" target="tLk9SmoAxB1TY1PYqv6q-10">
          <mxGeometry relative="1" as="geometry" />
        </mxCell>
        <mxCell id="tLk9SmoAxB1TY1PYqv6q-8" value="&lt;div style=&quot;line-height: 40%;&quot;&gt;&lt;p class=&quot;MsoNormal&quot;&gt;&lt;font face=&quot;Helvetica&quot; style=&quot;&quot;&gt;蜂鸣器D5引脚&lt;/font&gt;&lt;/p&gt;&lt;p class=&quot;MsoNormal&quot;&gt;&lt;font face=&quot;Helvetica&quot; style=&quot;&quot;&gt;输出模式&lt;/font&gt;&lt;/p&gt;&lt;/div&gt;" style="whiteSpace=wrap;html=1;strokeWidth=2;" vertex="1" parent="1">
          <mxGeometry x="140" y="580" width="120" height="60" as="geometry" />
        </mxCell>
        <mxCell id="tLk9SmoAxB1TY1PYqv6q-13" value="" style="edgeStyle=orthogonalEdgeStyle;rounded=0;orthogonalLoop=1;jettySize=auto;html=1;" edge="1" parent="1" source="tLk9SmoAxB1TY1PYqv6q-10" target="tLk9SmoAxB1TY1PYqv6q-12">
          <mxGeometry relative="1" as="geometry" />
        </mxCell>
        <mxCell id="tLk9SmoAxB1TY1PYqv6q-10" value="&lt;p class=&quot;MsoNormal&quot;&gt;&lt;font face=&quot;Helvetica&quot;&gt;火焰传感器D16引脚设置为输入模式&lt;/font&gt;&lt;span style=&quot;mso-spacerun:&#39;yes&#39;;font-family:宋体;mso-ascii-font-family:Calibri;&lt;br/&gt;mso-hansi-font-family:Calibri;mso-bidi-font-family:&#39;Times New Roman&#39;;font-size:10.5000pt;&lt;br/&gt;mso-font-kerning:1.0000pt;&quot;&gt;&lt;/span&gt;&lt;/p&gt;" style="whiteSpace=wrap;html=1;strokeWidth=2;" vertex="1" parent="1">
          <mxGeometry x="320" y="580" width="120" height="60" as="geometry" />
        </mxCell>
        <mxCell id="tLk9SmoAxB1TY1PYqv6q-15" value="" style="edgeStyle=orthogonalEdgeStyle;rounded=0;orthogonalLoop=1;jettySize=auto;html=1;" edge="1" parent="1" source="tLk9SmoAxB1TY1PYqv6q-12" target="tLk9SmoAxB1TY1PYqv6q-14">
          <mxGeometry relative="1" as="geometry" />
        </mxCell>
        <mxCell id="tLk9SmoAxB1TY1PYqv6q-12" value="&lt;p class=&quot;MsoNormal&quot;&gt;&lt;font face=&quot;Helvetica&quot; style=&quot;&quot;&gt;&lt;font style=&quot;&quot;&gt;PIR&lt;/font&gt;&lt;font style=&quot;&quot;&gt;引脚设置为输入模式&lt;/font&gt;&lt;/font&gt;&lt;span style=&quot;mso-spacerun:&#39;yes&#39;;font-family:宋体;mso-ascii-font-family:Calibri;&lt;br/&gt;mso-hansi-font-family:Calibri;mso-bidi-font-family:&#39;Times New Roman&#39;;font-size:10.5000pt;&lt;br/&gt;mso-font-kerning:1.0000pt;&quot;&gt;&lt;/span&gt;&lt;/p&gt;" style="whiteSpace=wrap;html=1;strokeWidth=2;" vertex="1" parent="1">
          <mxGeometry x="320" y="480" width="120" height="60" as="geometry" />
        </mxCell>
        <mxCell id="tLk9SmoAxB1TY1PYqv6q-17" value="" style="edgeStyle=orthogonalEdgeStyle;rounded=0;orthogonalLoop=1;jettySize=auto;html=1;" edge="1" parent="1" source="tLk9SmoAxB1TY1PYqv6q-14" target="tLk9SmoAxB1TY1PYqv6q-16">
          <mxGeometry relative="1" as="geometry" />
        </mxCell>
        <mxCell id="tLk9SmoAxB1TY1PYqv6q-14" value="&lt;p class=&quot;MsoNormal&quot;&gt;&lt;font face=&quot;Helvetica&quot; style=&quot;&quot;&gt;&lt;font style=&quot;&quot;&gt;DHT11&lt;/font&gt;&lt;font style=&quot;&quot;&gt;引脚初始化&lt;/font&gt;&lt;/font&gt;&lt;span style=&quot;mso-spacerun:&#39;yes&#39;;font-family:宋体;mso-ascii-font-family:Calibri;&lt;br/&gt;mso-hansi-font-family:Calibri;mso-bidi-font-family:&#39;Times New Roman&#39;;font-size:10.5000pt;&lt;br/&gt;mso-font-kerning:1.0000pt;&quot;&gt;&lt;/span&gt;&lt;/p&gt;" style="whiteSpace=wrap;html=1;strokeWidth=2;" vertex="1" parent="1">
          <mxGeometry x="320" y="380" width="120" height="60" as="geometry" />
        </mxCell>
        <mxCell id="tLk9SmoAxB1TY1PYqv6q-19" value="" style="edgeStyle=orthogonalEdgeStyle;rounded=0;orthogonalLoop=1;jettySize=auto;html=1;" edge="1" parent="1" source="tLk9SmoAxB1TY1PYqv6q-16" target="tLk9SmoAxB1TY1PYqv6q-18">
          <mxGeometry relative="1" as="geometry" />
        </mxCell>
        <mxCell id="tLk9SmoAxB1TY1PYqv6q-49" value="" style="edgeStyle=orthogonalEdgeStyle;rounded=0;orthogonalLoop=1;jettySize=auto;html=1;entryX=0.5;entryY=1;entryDx=0;entryDy=0;" edge="1" parent="1" source="tLk9SmoAxB1TY1PYqv6q-16" target="tLk9SmoAxB1TY1PYqv6q-35">
          <mxGeometry relative="1" as="geometry">
            <Array as="points">
              <mxPoint x="300" y="300" />
            </Array>
          </mxGeometry>
        </mxCell>
        <mxCell id="tLk9SmoAxB1TY1PYqv6q-16" value="&lt;p class=&quot;MsoNormal&quot;&gt;&lt;font face=&quot;Helvetica&quot; style=&quot;&quot;&gt;&lt;font style=&quot;&quot;&gt;连接&lt;/font&gt;&lt;font style=&quot;&quot;&gt;WiFi热点配网&lt;/font&gt;&lt;/font&gt;&lt;span style=&quot;mso-spacerun:&#39;yes&#39;;font-family:宋体;mso-ascii-font-family:Calibri;&lt;br/&gt;mso-hansi-font-family:Calibri;mso-bidi-font-family:&#39;Times New Roman&#39;;font-size:10.5000pt;&lt;br/&gt;mso-font-kerning:1.0000pt;&quot;&gt;&lt;/span&gt;&lt;/p&gt;" style="rhombus;whiteSpace=wrap;html=1;strokeWidth=2;" vertex="1" parent="1">
          <mxGeometry x="317.5" y="260" width="125" height="80" as="geometry" />
        </mxCell>
        <mxCell id="tLk9SmoAxB1TY1PYqv6q-21" value="" style="edgeStyle=orthogonalEdgeStyle;rounded=0;orthogonalLoop=1;jettySize=auto;html=1;" edge="1" parent="1" source="tLk9SmoAxB1TY1PYqv6q-18" target="tLk9SmoAxB1TY1PYqv6q-20">
          <mxGeometry relative="1" as="geometry" />
        </mxCell>
        <mxCell id="tLk9SmoAxB1TY1PYqv6q-44" value="" style="edgeStyle=orthogonalEdgeStyle;rounded=0;orthogonalLoop=1;jettySize=auto;html=1;" edge="1" parent="1" source="tLk9SmoAxB1TY1PYqv6q-18" target="tLk9SmoAxB1TY1PYqv6q-43">
          <mxGeometry relative="1" as="geometry">
            <Array as="points">
              <mxPoint x="558" y="195" />
            </Array>
          </mxGeometry>
        </mxCell>
        <mxCell id="tLk9SmoAxB1TY1PYqv6q-18" value="&lt;p class=&quot;MsoNormal&quot;&gt;&lt;font face=&quot;Helvetica&quot; style=&quot;&quot;&gt;&lt;font style=&quot;&quot;&gt;连接&lt;/font&gt;&lt;font style=&quot;&quot;&gt;OneNET平台&lt;/font&gt;&lt;/font&gt;&lt;span style=&quot;mso-spacerun:&#39;yes&#39;;font-family:宋体;mso-ascii-font-family:Calibri;&lt;br/&gt;mso-hansi-font-family:Calibri;mso-bidi-font-family:&#39;Times New Roman&#39;;font-size:10.5000pt;&lt;br/&gt;mso-font-kerning:1.0000pt;&quot;&gt;&lt;/span&gt;&lt;/p&gt;" style="rhombus;whiteSpace=wrap;html=1;strokeWidth=2;" vertex="1" parent="1">
          <mxGeometry x="500" y="260" width="115" height="80" as="geometry" />
        </mxCell>
        <mxCell id="tLk9SmoAxB1TY1PYqv6q-23" value="" style="edgeStyle=orthogonalEdgeStyle;rounded=0;orthogonalLoop=1;jettySize=auto;html=1;" edge="1" parent="1" source="tLk9SmoAxB1TY1PYqv6q-20" target="tLk9SmoAxB1TY1PYqv6q-22">
          <mxGeometry relative="1" as="geometry" />
        </mxCell>
        <mxCell id="tLk9SmoAxB1TY1PYqv6q-20" value="&lt;p class=&quot;MsoNormal&quot;&gt;&lt;font face=&quot;Helvetica&quot;&gt;&lt;font style=&quot;&quot;&gt;ESP32通过Loop&lt;/font&gt;&lt;font style=&quot;&quot;&gt;循环上报数据&lt;/font&gt;&lt;/font&gt;&lt;/p&gt;" style="whiteSpace=wrap;html=1;strokeWidth=2;" vertex="1" parent="1">
          <mxGeometry x="497.5" y="380" width="120" height="60" as="geometry" />
        </mxCell>
        <mxCell id="tLk9SmoAxB1TY1PYqv6q-25" value="" style="edgeStyle=orthogonalEdgeStyle;rounded=0;orthogonalLoop=1;jettySize=auto;html=1;" edge="1" parent="1" source="tLk9SmoAxB1TY1PYqv6q-22" target="tLk9SmoAxB1TY1PYqv6q-24">
          <mxGeometry relative="1" as="geometry" />
        </mxCell>
        <mxCell id="tLk9SmoAxB1TY1PYqv6q-22" value="&lt;p class=&quot;MsoNormal&quot;&gt;&lt;font face=&quot;Helvetica&quot; style=&quot;&quot;&gt;后端接收并解析数据&lt;/font&gt;&lt;span style=&quot;mso-spacerun:&#39;yes&#39;;font-family:宋体;mso-ascii-font-family:Calibri;&lt;br/&gt;mso-hansi-font-family:Calibri;mso-bidi-font-family:&#39;Times New Roman&#39;;font-size:10.5000pt;&lt;br/&gt;mso-font-kerning:1.0000pt;&quot;&gt;&lt;/span&gt;&lt;/p&gt;" style="whiteSpace=wrap;html=1;strokeWidth=2;" vertex="1" parent="1">
          <mxGeometry x="497.5" y="480" width="120" height="60" as="geometry" />
        </mxCell>
        <mxCell id="tLk9SmoAxB1TY1PYqv6q-27" value="" style="edgeStyle=orthogonalEdgeStyle;rounded=0;orthogonalLoop=1;jettySize=auto;html=1;" edge="1" parent="1" source="tLk9SmoAxB1TY1PYqv6q-24" target="tLk9SmoAxB1TY1PYqv6q-26">
          <mxGeometry relative="1" as="geometry" />
        </mxCell>
        <mxCell id="tLk9SmoAxB1TY1PYqv6q-51" value="" style="edgeStyle=orthogonalEdgeStyle;rounded=0;orthogonalLoop=1;jettySize=auto;html=1;" edge="1" parent="1" source="tLk9SmoAxB1TY1PYqv6q-24" target="tLk9SmoAxB1TY1PYqv6q-50">
          <mxGeometry relative="1" as="geometry">
            <Array as="points">
              <mxPoint x="558" y="660" />
              <mxPoint x="840" y="660" />
              <mxPoint x="840" y="310" />
            </Array>
          </mxGeometry>
        </mxCell>
        <mxCell id="tLk9SmoAxB1TY1PYqv6q-24" value="&lt;div style=&quot;line-height: 40%;&quot;&gt;&lt;p class=&quot;MsoNormal&quot;&gt;&lt;font face=&quot;Helvetica&quot;&gt;是否&lt;font&gt;历史宿舍&lt;/font&gt;&lt;/font&gt;&lt;/p&gt;&lt;p class=&quot;MsoNormal&quot;&gt;&lt;font face=&quot;Helvetica&quot;&gt;&lt;font&gt;环境数据查询&lt;/font&gt;&lt;/font&gt;&lt;/p&gt;&lt;/div&gt;" style="rhombus;whiteSpace=wrap;html=1;strokeWidth=2;" vertex="1" parent="1">
          <mxGeometry x="496.88" y="570" width="121.25" height="80" as="geometry" />
        </mxCell>
        <mxCell id="tLk9SmoAxB1TY1PYqv6q-29" value="" style="edgeStyle=orthogonalEdgeStyle;rounded=0;orthogonalLoop=1;jettySize=auto;html=1;" edge="1" parent="1" source="tLk9SmoAxB1TY1PYqv6q-26" target="tLk9SmoAxB1TY1PYqv6q-28">
          <mxGeometry relative="1" as="geometry" />
        </mxCell>
        <mxCell id="tLk9SmoAxB1TY1PYqv6q-58" value="" style="edgeStyle=orthogonalEdgeStyle;rounded=0;orthogonalLoop=1;jettySize=auto;html=1;exitX=1;exitY=0.5;exitDx=0;exitDy=0;" edge="1" parent="1" source="tLk9SmoAxB1TY1PYqv6q-26">
          <mxGeometry relative="1" as="geometry">
            <mxPoint x="796.6300000000001" y="610" as="sourcePoint" />
            <mxPoint x="786.0050000000001" y="405" as="targetPoint" />
            <Array as="points">
              <mxPoint x="826" y="610" />
              <mxPoint x="826" y="405" />
            </Array>
          </mxGeometry>
        </mxCell>
        <mxCell id="tLk9SmoAxB1TY1PYqv6q-26" value="&lt;div style=&quot;line-height: 40%;&quot;&gt;&lt;p class=&quot;MsoNormal&quot;&gt;&lt;font face=&quot;Helvetica&quot;&gt;&amp;nbsp;&lt;font&gt;是否&lt;/font&gt;&lt;font&gt;历史宿舍&lt;/font&gt;&lt;/font&gt;&lt;/p&gt;&lt;p class=&quot;MsoNormal&quot;&gt;&lt;font face=&quot;Helvetica&quot;&gt;&lt;font&gt;环境数据导出&lt;/font&gt;&lt;/font&gt;&lt;/p&gt;&lt;/div&gt;" style="rhombus;whiteSpace=wrap;html=1;strokeWidth=2;" vertex="1" parent="1">
          <mxGeometry x="680" y="570" width="110.63" height="80" as="geometry" />
        </mxCell>
        <mxCell id="tLk9SmoAxB1TY1PYqv6q-41" value="" style="edgeStyle=orthogonalEdgeStyle;rounded=0;orthogonalLoop=1;jettySize=auto;html=1;entryX=0.5;entryY=1;entryDx=0;entryDy=0;entryPerimeter=0;" edge="1" parent="1" source="tLk9SmoAxB1TY1PYqv6q-28" target="tLk9SmoAxB1TY1PYqv6q-42">
          <mxGeometry relative="1" as="geometry">
            <mxPoint x="735" y="440" as="targetPoint" />
          </mxGeometry>
        </mxCell>
        <mxCell id="tLk9SmoAxB1TY1PYqv6q-28" value="&lt;p class=&quot;MsoNormal&quot;&gt;&lt;font face=&quot;Helvetica&quot; style=&quot;&quot;&gt;导出历史环境数据&lt;/font&gt;&lt;/p&gt;" style="whiteSpace=wrap;html=1;strokeWidth=2;" vertex="1" parent="1">
          <mxGeometry x="675.305" y="475" width="120" height="60" as="geometry" />
        </mxCell>
        <mxCell id="tLk9SmoAxB1TY1PYqv6q-35" value="&lt;p class=&quot;MsoNormal&quot;&gt;再次连接WiFi&lt;/p&gt;" style="whiteSpace=wrap;html=1;strokeWidth=2;" vertex="1" parent="1">
          <mxGeometry x="270" y="170" width="60" height="90" as="geometry" />
        </mxCell>
        <mxCell id="tLk9SmoAxB1TY1PYqv6q-36" value="" style="endArrow=none;html=1;rounded=0;exitX=0.5;exitY=0;exitDx=0;exitDy=0;" edge="1" parent="1" source="tLk9SmoAxB1TY1PYqv6q-35">
          <mxGeometry width="50" height="50" relative="1" as="geometry">
            <mxPoint x="290" y="150" as="sourcePoint" />
            <mxPoint x="300" y="140" as="targetPoint" />
          </mxGeometry>
        </mxCell>
        <mxCell id="tLk9SmoAxB1TY1PYqv6q-37" value="" style="endArrow=none;html=1;rounded=0;" edge="1" parent="1">
          <mxGeometry width="50" height="50" relative="1" as="geometry">
            <mxPoint x="300" y="139" as="sourcePoint" />
            <mxPoint x="380" y="139" as="targetPoint" />
          </mxGeometry>
        </mxCell>
        <mxCell id="tLk9SmoAxB1TY1PYqv6q-39" value="" style="endArrow=classic;html=1;rounded=0;entryX=0.5;entryY=0;entryDx=0;entryDy=0;" edge="1" parent="1" target="tLk9SmoAxB1TY1PYqv6q-16">
          <mxGeometry width="50" height="50" relative="1" as="geometry">
            <mxPoint x="380" y="140" as="sourcePoint" />
            <mxPoint x="380" y="250" as="targetPoint" />
          </mxGeometry>
        </mxCell>
        <mxCell id="tLk9SmoAxB1TY1PYqv6q-42" value="结束" style="strokeWidth=2;html=1;shape=mxgraph.flowchart.terminator;whiteSpace=wrap;" vertex="1" parent="1">
          <mxGeometry x="685.3100000000001" y="380" width="100" height="50" as="geometry" />
        </mxCell>
        <mxCell id="tLk9SmoAxB1TY1PYqv6q-45" value="" style="edgeStyle=orthogonalEdgeStyle;rounded=0;orthogonalLoop=1;jettySize=auto;html=1;" edge="1" parent="1" source="tLk9SmoAxB1TY1PYqv6q-43" target="tLk9SmoAxB1TY1PYqv6q-18">
          <mxGeometry relative="1" as="geometry">
            <Array as="points">
              <mxPoint x="660" y="300" />
            </Array>
          </mxGeometry>
        </mxCell>
        <mxCell id="tLk9SmoAxB1TY1PYqv6q-43" value="再次连接OneNET&lt;div&gt;云平台&lt;/div&gt;" style="whiteSpace=wrap;html=1;strokeWidth=2;" vertex="1" parent="1">
          <mxGeometry x="600" y="170" width="100" height="50" as="geometry" />
        </mxCell>
        <mxCell id="tLk9SmoAxB1TY1PYqv6q-59" value="" style="edgeStyle=orthogonalEdgeStyle;rounded=0;orthogonalLoop=1;jettySize=auto;html=1;" edge="1" parent="1" source="tLk9SmoAxB1TY1PYqv6q-50" target="tLk9SmoAxB1TY1PYqv6q-42">
          <mxGeometry relative="1" as="geometry">
            <Array as="points">
              <mxPoint x="735" y="350" />
              <mxPoint x="735" y="350" />
            </Array>
          </mxGeometry>
        </mxCell>
        <mxCell id="tLk9SmoAxB1TY1PYqv6q-50" value="查询历史宿舍&lt;div&gt;环境数据&lt;/div&gt;" style="whiteSpace=wrap;html=1;strokeWidth=2;" vertex="1" parent="1">
          <mxGeometry x="670.63" y="270" width="114.68" height="60" as="geometry" />
        </mxCell>
        <mxCell id="tLk9SmoAxB1TY1PYqv6q-60" value="&lt;font face=&quot;Helvetica&quot;&gt;Y&lt;/font&gt;" style="text;html=1;align=center;verticalAlign=middle;whiteSpace=wrap;rounded=0;" vertex="1" parent="1">
          <mxGeometry x="433.88" y="274" width="60" height="30" as="geometry" />
        </mxCell>
        <mxCell id="tLk9SmoAxB1TY1PYqv6q-61" value="&lt;font face=&quot;Helvetica&quot;&gt;N&lt;/font&gt;" style="text;html=1;align=center;verticalAlign=middle;whiteSpace=wrap;rounded=0;" vertex="1" parent="1">
          <mxGeometry x="284" y="270" width="60" height="30" as="geometry" />
        </mxCell>
        <mxCell id="tLk9SmoAxB1TY1PYqv6q-62" value="&lt;font face=&quot;Helvetica&quot;&gt;Y&lt;/font&gt;" style="text;html=1;align=center;verticalAlign=middle;whiteSpace=wrap;rounded=0;" vertex="1" parent="1">
          <mxGeometry x="516" y="339" width="60" height="30" as="geometry" />
        </mxCell>
        <mxCell id="tLk9SmoAxB1TY1PYqv6q-63" value="&lt;font face=&quot;Helvetica&quot;&gt;N&lt;/font&gt;" style="text;html=1;align=center;verticalAlign=middle;whiteSpace=wrap;rounded=0;" vertex="1" parent="1">
          <mxGeometry x="515" y="213" width="60" height="30" as="geometry" />
        </mxCell>
        <mxCell id="tLk9SmoAxB1TY1PYqv6q-64" value="&lt;font face=&quot;Helvetica&quot;&gt;N&lt;/font&gt;" style="text;html=1;align=center;verticalAlign=middle;whiteSpace=wrap;rounded=0;" vertex="1" parent="1">
          <mxGeometry x="615" y="585" width="60" height="30" as="geometry" />
        </mxCell>
        <mxCell id="tLk9SmoAxB1TY1PYqv6q-65" value="&lt;div&gt;&lt;font face=&quot;Helvetica&quot;&gt;Y&lt;/font&gt;&lt;/div&gt;" style="text;html=1;align=center;verticalAlign=middle;whiteSpace=wrap;rounded=0;" vertex="1" parent="1">
          <mxGeometry x="565" y="634" width="60" height="30" as="geometry" />
        </mxCell>
        <mxCell id="tLk9SmoAxB1TY1PYqv6q-66" value="&lt;font face=&quot;Helvetica&quot;&gt;Y&lt;/font&gt;" style="text;html=1;align=center;verticalAlign=middle;whiteSpace=wrap;rounded=0;" vertex="1" parent="1">
          <mxGeometry x="694.31" y="544" width="60" height="30" as="geometry" />
        </mxCell>
        <mxCell id="tLk9SmoAxB1TY1PYqv6q-67" value="&lt;font face=&quot;Helvetica&quot;&gt;N&lt;/font&gt;" style="text;html=1;align=center;verticalAlign=middle;whiteSpace=wrap;rounded=0;" vertex="1" parent="1">
          <mxGeometry x="776" y="583" width="60" height="30" as="geometry" />
        </mxCell>
      </root>
    </mxGraphModel>
  </diagram>
</mxfile>
